<mxfile host="app.diagrams.net" modified="2023-11-15T21:34:33.126Z" agent="Mozilla/5.0 (Windows NT 10.0; Win64; x64) AppleWebKit/537.36 (KHTML, like Gecko) Chrome/119.0.0.0 Safari/537.36" etag="Q2fPi8q9Xfa8ENvsK4-q" version="22.1.2" type="device">
  <diagram name="1 oldal" id="_3uZMOOOpD7t4sgwszIb">
    <mxGraphModel dx="1434" dy="782" grid="1" gridSize="10" guides="1" tooltips="1" connect="1" arrows="1" fold="1" page="1" pageScale="1" pageWidth="827" pageHeight="1169" math="0" shadow="0">
      <root>
        <mxCell id="0" />
        <mxCell id="1" parent="0" />
        <mxCell id="dzdAESwAE7rJV9V7MGlo-1" value="Server" style="rounded=1;whiteSpace=wrap;html=1;" vertex="1" parent="1">
          <mxGeometry x="370" y="360" width="730" height="430" as="geometry" />
        </mxCell>
        <mxCell id="dzdAESwAE7rJV9V7MGlo-2" value="Web Client" style="rounded=1;whiteSpace=wrap;html=1;" vertex="1" parent="1">
          <mxGeometry x="264" y="160" width="300" height="100" as="geometry" />
        </mxCell>
        <mxCell id="dzdAESwAE7rJV9V7MGlo-3" value="PSql" style="shape=cylinder3;whiteSpace=wrap;html=1;boundedLbl=1;backgroundOutline=1;size=15;" vertex="1" parent="1">
          <mxGeometry x="695" y="860" width="80" height="110" as="geometry" />
        </mxCell>
        <mxCell id="dzdAESwAE7rJV9V7MGlo-4" value="Simulator" style="rounded=1;whiteSpace=wrap;html=1;" vertex="1" parent="1">
          <mxGeometry x="1100" y="100" width="270" height="100" as="geometry" />
        </mxCell>
        <mxCell id="dzdAESwAE7rJV9V7MGlo-5" value="" style="shape=flexArrow;endArrow=classic;startArrow=classic;html=1;rounded=0;entryX=0.5;entryY=1;entryDx=0;entryDy=0;exitX=0.5;exitY=0;exitDx=0;exitDy=0;exitPerimeter=0;" edge="1" parent="1" source="dzdAESwAE7rJV9V7MGlo-3" target="dzdAESwAE7rJV9V7MGlo-1">
          <mxGeometry width="100" height="100" relative="1" as="geometry">
            <mxPoint x="659" y="760" as="sourcePoint" />
            <mxPoint x="659" y="670" as="targetPoint" />
          </mxGeometry>
        </mxCell>
        <mxCell id="dzdAESwAE7rJV9V7MGlo-6" value="" style="shape=flexArrow;endArrow=classic;startArrow=classic;html=1;rounded=0;exitX=0.5;exitY=1;exitDx=0;exitDy=0;entryX=0.227;entryY=-0.031;entryDx=0;entryDy=0;entryPerimeter=0;" edge="1" parent="1" source="dzdAESwAE7rJV9V7MGlo-2" target="dzdAESwAE7rJV9V7MGlo-1">
          <mxGeometry width="100" height="100" relative="1" as="geometry">
            <mxPoint x="470" y="370" as="sourcePoint" />
            <mxPoint x="570" y="270" as="targetPoint" />
          </mxGeometry>
        </mxCell>
        <mxCell id="dzdAESwAE7rJV9V7MGlo-7" value="" style="shape=flexArrow;endArrow=classic;startArrow=classic;html=1;rounded=0;entryX=0.5;entryY=1;entryDx=0;entryDy=0;exitX=0.75;exitY=0;exitDx=0;exitDy=0;" edge="1" parent="1" source="dzdAESwAE7rJV9V7MGlo-14" target="dzdAESwAE7rJV9V7MGlo-4">
          <mxGeometry width="100" height="100" relative="1" as="geometry">
            <mxPoint x="1150" y="280" as="sourcePoint" />
            <mxPoint x="1020" y="260" as="targetPoint" />
          </mxGeometry>
        </mxCell>
        <mxCell id="dzdAESwAE7rJV9V7MGlo-8" value="Db Acc" style="rounded=1;whiteSpace=wrap;html=1;" vertex="1" parent="1">
          <mxGeometry x="490" y="690" width="500" height="80" as="geometry" />
        </mxCell>
        <mxCell id="dzdAESwAE7rJV9V7MGlo-9" value="Client shit" style="rounded=1;whiteSpace=wrap;html=1;" vertex="1" parent="1">
          <mxGeometry x="420" y="400" width="243" height="190" as="geometry" />
        </mxCell>
        <mxCell id="dzdAESwAE7rJV9V7MGlo-10" value="MQTT shit" style="rounded=1;whiteSpace=wrap;html=1;" vertex="1" parent="1">
          <mxGeometry x="820" y="400" width="240" height="180" as="geometry" />
        </mxCell>
        <mxCell id="dzdAESwAE7rJV9V7MGlo-11" value="" style="shape=flexArrow;endArrow=classic;startArrow=classic;html=1;rounded=0;entryX=0.5;entryY=1;entryDx=0;entryDy=0;" edge="1" parent="1" source="dzdAESwAE7rJV9V7MGlo-8" target="dzdAESwAE7rJV9V7MGlo-10">
          <mxGeometry width="100" height="100" relative="1" as="geometry">
            <mxPoint x="880" y="700" as="sourcePoint" />
            <mxPoint x="980" y="600" as="targetPoint" />
          </mxGeometry>
        </mxCell>
        <mxCell id="dzdAESwAE7rJV9V7MGlo-12" value="" style="shape=flexArrow;endArrow=classic;startArrow=classic;html=1;rounded=0;exitX=0.5;exitY=1;exitDx=0;exitDy=0;entryX=0.25;entryY=0;entryDx=0;entryDy=0;" edge="1" parent="1" source="dzdAESwAE7rJV9V7MGlo-9" target="dzdAESwAE7rJV9V7MGlo-8">
          <mxGeometry width="100" height="100" relative="1" as="geometry">
            <mxPoint x="540" y="720" as="sourcePoint" />
            <mxPoint x="640" y="620" as="targetPoint" />
          </mxGeometry>
        </mxCell>
        <mxCell id="dzdAESwAE7rJV9V7MGlo-14" value="MQTT Broker" style="rounded=1;whiteSpace=wrap;html=1;" vertex="1" parent="1">
          <mxGeometry x="960" y="270" width="200" height="60" as="geometry" />
        </mxCell>
        <mxCell id="dzdAESwAE7rJV9V7MGlo-15" value="" style="shape=flexArrow;endArrow=classic;startArrow=classic;html=1;rounded=0;exitX=0.5;exitY=0;exitDx=0;exitDy=0;entryX=0.5;entryY=1;entryDx=0;entryDy=0;" edge="1" parent="1" source="dzdAESwAE7rJV9V7MGlo-10" target="dzdAESwAE7rJV9V7MGlo-14">
          <mxGeometry width="100" height="100" relative="1" as="geometry">
            <mxPoint x="1280" y="450" as="sourcePoint" />
            <mxPoint x="1380" y="350" as="targetPoint" />
          </mxGeometry>
        </mxCell>
      </root>
    </mxGraphModel>
  </diagram>
</mxfile>
